<?xml version="1.0" encoding="UTF-8" standalone="no"?>
<!DOCTYPE svg PUBLIC "-//W3C//DTD SVG 1.0//EN" "http://www.w3.org/TR/2001/PR-SVG-20010719/DTD/svg10.dtd">
<svg width="69cm" height="24cm" viewBox="18 -42 1363 463" xmlns="http://www.w3.org/2000/svg" xmlns:xlink="http://www.w3.org/1999/xlink">
  <g>
    <rect style="fill: #ffffff" x="20" y="-40" width="1360" height="460"/>
    <rect style="fill: none; fill-opacity:0; stroke-width: 2; stroke: #ffffff" x="20" y="-40" width="1360" height="460"/>
  </g>
  <g>
    <rect style="fill: #ffffff" x="220" y="200" width="120" height="70"/>
    <rect style="fill: none; fill-opacity:0; stroke-width: 2; stroke: #000000" x="220" y="200" width="120" height="70"/>
  </g>
  <text font-size="12.8" style="fill: #000000;text-anchor:start;font-family:sans-serif;font-style:normal;font-weight:normal" x="240" y="220">
    <tspan x="240" y="220">LiPo Charger</tspan>
    <tspan x="240" y="236">(based on</tspan>
    <tspan x="240" y="252">MCP73833)</tspan>
  </text>
  <g>
    <line style="fill: none; fill-opacity:0; stroke-width: 2; stroke: #000000" x1="430" y1="250" x2="430" y2="275"/>
    <line style="fill: none; fill-opacity:0; stroke-width: 2; stroke: #000000" x1="405" y1="275" x2="455" y2="275"/>
    <line style="fill: none; fill-opacity:0; stroke-width: 2; stroke: #000000" x1="417.5" y1="285" x2="442.5" y2="285"/>
    <line style="fill: none; fill-opacity:0; stroke-width: 2; stroke: #000000" x1="442.5" y1="260" x2="442.5" y2="270"/>
    <line style="fill: none; fill-opacity:0; stroke-width: 2; stroke: #000000" x1="436.25" y1="265" x2="448.75" y2="265"/>
    <line style="fill: none; fill-opacity:0; stroke-width: 2; stroke: #000000" x1="430" y1="285" x2="430" y2="310"/>
  </g>
  <g>
    <rect style="fill: #ffffff" x="670" y="210" width="90" height="60"/>
    <rect style="fill: none; fill-opacity:0; stroke-width: 2; stroke: #000000" x="670" y="210" width="90" height="60"/>
  </g>
  <line style="fill: none; fill-opacity:0; stroke-width: 2; stroke: #000000" x1="630" y1="220" x2="670" y2="220"/>
  <text font-size="12.8" style="fill: #000000;text-anchor:start;font-family:sans-serif;font-style:normal;font-weight:normal" x="680" y="240">
    <tspan x="680" y="240">DC-DC Boost</tspan>
    <tspan x="680" y="256">  Vout=5.9v</tspan>
  </text>
  <g>
    <line style="fill: none; fill-opacity:0; stroke-width: 2; stroke: #000000" x1="340" y1="220" x2="360" y2="220"/>
    <line style="fill: none; fill-opacity:0; stroke-width: 2; stroke: #000000" x1="390" y1="220" x2="410" y2="220"/>
    <g>
      <line style="fill: none; fill-opacity:0; stroke-width: 2; stroke: #000000" x1="360" y1="220" x2="383.359" y2="212.214"/>
      <path style="fill: #ffffff" d="M 389.051 210.316 C 389.526,211.739 388.577,213.637 387.154,214.111 C 385.731,214.585 383.834,213.637 383.359,212.214 C 382.885,210.791 383.834,208.893 385.257,208.419 C 386.68,207.945 388.577,208.893 389.051,210.316z"/>
      <path style="fill: none; fill-opacity:0; stroke-width: 2; stroke: #000000" d="M 389.051 210.316 C 389.526,211.739 388.577,213.637 387.154,214.111 C 385.731,214.585 383.834,213.637 383.359,212.214 C 382.885,210.791 383.834,208.893 385.257,208.419 C 386.68,207.945 388.577,208.893 389.051,210.316"/>
    </g>
  </g>
  <line style="fill: none; fill-opacity:0; stroke-width: 2; stroke: #000000" x1="391" y1="220" x2="530" y2="220"/>
  <g>
    <rect style="fill: #ffffff" x="70" y="-20" width="90" height="50"/>
    <rect style="fill: none; fill-opacity:0; stroke-width: 2; stroke: #000000" x="70" y="-20" width="90" height="50"/>
  </g>
  <text font-size="12.8" style="fill: #000000;text-anchor:start;font-family:sans-serif;font-style:normal;font-weight:normal" x="80" y="0">
    <tspan x="80" y="0">DC-DC Buck</tspan>
    <tspan x="80" y="16">  Vout=5.9v</tspan>
  </text>
  <g>
    <g>
      <polygon style="fill: #ffffff" points="820,20 820,-20 840,0 "/>
      <polygon style="fill: none; fill-opacity:0; stroke-width: 2; stroke: #000000" points="820,20 820,-20 840,0 "/>
    </g>
    <line style="fill: none; fill-opacity:0; stroke-width: 6; stroke: #000000" x1="840" y1="-20" x2="840" y2="20"/>
    <line style="fill: none; fill-opacity:0; stroke-width: 2; stroke: #000000" x1="820" y1="0" x2="800" y2="0"/>
    <line style="fill: none; fill-opacity:0; stroke-width: 2; stroke: #000000" x1="840" y1="0" x2="860" y2="0"/>
  </g>
  <g>
    <g>
      <polygon style="fill: #ffffff" points="820,260 820,220 840,240 "/>
      <polygon style="fill: none; fill-opacity:0; stroke-width: 2; stroke: #000000" points="820,260 820,220 840,240 "/>
    </g>
    <line style="fill: none; fill-opacity:0; stroke-width: 6; stroke: #000000" x1="840" y1="220" x2="840" y2="260"/>
    <line style="fill: none; fill-opacity:0; stroke-width: 2; stroke: #000000" x1="820" y1="240" x2="800" y2="240"/>
    <line style="fill: none; fill-opacity:0; stroke-width: 2; stroke: #000000" x1="840" y1="240" x2="860" y2="240"/>
  </g>
  <line style="fill: none; fill-opacity:0; stroke-width: 2; stroke: #000000" x1="760" y1="240" x2="800" y2="240"/>
  <text font-size="12.8" style="fill: #000000;text-anchor:start;font-family:sans-serif;font-style:normal;font-weight:normal" x="30" y="-10">
    <tspan x="30" y="-10">Vin</tspan>
  </text>
  <line style="fill: none; fill-opacity:0; stroke-width: 2; stroke: #000000" x1="28" y1="0" x2="70" y2="0"/>
  <text font-size="12.8" style="fill: #000000;text-anchor:start;font-family:sans-serif;font-style:normal;font-weight:normal" x="32" y="16">
    <tspan x="32" y="16">9-16V</tspan>
  </text>
  <line style="fill: none; fill-opacity:0; stroke-width: 2; stroke: #000000" x1="160" y1="0" x2="820" y2="0"/>
  <polyline style="fill: none; fill-opacity:0; stroke-width: 2; stroke: #000000" points="180,0 180,230 220,230 "/>
  <line style="fill: none; fill-opacity:0; stroke-width: 2; stroke: #000000" x1="430" y1="250" x2="430.833" y2="224.995"/>
  <g>
    <line style="fill: none; fill-opacity:0; stroke-width: 2; stroke: #000000" x1="429.5" y1="310" x2="429.5" y2="320"/>
    <line style="fill: none; fill-opacity:0; stroke-width: 2; stroke: #000000" x1="420" y1="320" x2="439" y2="320"/>
    <line style="fill: none; fill-opacity:0; stroke-width: 2; stroke: #000000" x1="423.183" y1="325" x2="435.818" y2="325"/>
    <line style="fill: none; fill-opacity:0; stroke-width: 2; stroke: #000000" x1="426.365" y1="330" x2="432.635" y2="330"/>
  </g>
  <line style="fill: none; fill-opacity:0; stroke-width: 2; stroke: #000000" x1="860" y1="0" x2="860" y2="240"/>
  <g>
    <rect style="fill: #ffffff" x="1200" y="20" width="110" height="60"/>
    <rect style="fill: none; fill-opacity:0; stroke-width: 2; stroke: #000000" x="1200" y="20" width="110" height="60"/>
  </g>
  <text font-size="12.8" style="fill: #000000;text-anchor:start;font-family:sans-serif;font-style:normal;font-weight:normal" x="1220" y="52">
    <tspan x="1220" y="52">Odroid XU4</tspan>
  </text>
  <g>
    <rect style="fill: #ffffff" x="1060" y="120" width="100" height="60"/>
    <rect style="fill: none; fill-opacity:0; stroke-width: 2; stroke: #000000" x="1060" y="120" width="100" height="60"/>
  </g>
  <text font-size="12.8" style="fill: #000000;text-anchor:start;font-family:sans-serif;font-style:normal;font-weight:normal" x="1080" y="140">
    <tspan x="1080" y="140">P432VDG</tspan>
    <tspan x="1080" y="156">amplifier</tspan>
  </text>
  <line style="fill: none; fill-opacity:0; stroke-width: 2; stroke: #000000" x1="1020" y1="140" x2="1060" y2="140"/>
  <g>
    <line style="fill: none; fill-opacity:0; stroke-width: 2; stroke: #000000" x1="1020" y1="80" x2="1020" y2="120"/>
    <line style="fill: none; fill-opacity:0; stroke-width: 2; stroke: #000000" x1="1000" y1="60" x2="1020" y2="80"/>
    <line style="fill: none; fill-opacity:0; stroke-width: 2; stroke: #000000" x1="1020" y1="80" x2="1020" y2="60"/>
    <line style="fill: none; fill-opacity:0; stroke-width: 2; stroke: #000000" x1="1020" y1="80" x2="1040" y2="60"/>
  </g>
  <g>
    <rect style="fill: #ffffff" x="920" y="200" width="100" height="60"/>
    <rect style="fill: none; fill-opacity:0; stroke-width: 2; stroke: #000000" x="920" y="200" width="100" height="60"/>
  </g>
  <text font-size="12.8" style="fill: #000000;text-anchor:start;font-family:sans-serif;font-style:normal;font-weight:normal" x="930" y="230">
    <tspan x="930" y="230">DC-DC Boost</tspan>
    <tspan x="930" y="246">  Vout=12v</tspan>
  </text>
  <line style="fill: none; fill-opacity:0; stroke-width: 2; stroke: #000000" x1="1020" y1="230" x2="1060" y2="230"/>
  <g>
    <rect style="fill: #ffffff" x="1060" y="200" width="100" height="60"/>
    <rect style="fill: none; fill-opacity:0; stroke-width: 2; stroke: #000000" x="1060" y="200" width="100" height="60"/>
  </g>
  <text font-size="12.8" style="fill: #000000;text-anchor:start;font-family:sans-serif;font-style:normal;font-weight:normal" x="1060" y="220">
    <tspan x="1060" y="220"> LDO Regulator</tspan>
    <tspan x="1060" y="236">  Vout=10v</tspan>
  </text>
  <line style="fill: none; fill-opacity:0; stroke-width: 2; stroke: #000000" x1="1020" y1="140" x2="1020" y2="120"/>
  <g>
    <rect style="fill: #ffffff" x="1200" y="120" width="60" height="60"/>
    <rect style="fill: none; fill-opacity:0; stroke-width: 2; stroke: #000000" x="1200" y="120" width="60" height="60"/>
  </g>
  <text font-size="12.8" style="fill: #000000;text-anchor:start;font-family:sans-serif;font-style:normal;font-weight:normal" x="1208" y="140">
    <tspan x="1208" y="140">R820T2</tspan>
    <tspan x="1208" y="156">SDR</tspan>
  </text>
  <line style="fill: none; fill-opacity:0; stroke-width: 2; stroke: #000000" x1="1240" y1="80" x2="1240" y2="120"/>
  <text font-size="12.8" style="fill: #000000;text-anchor:start;font-family:sans-serif;font-style:normal;font-weight:normal" x="1260" y="100">
    <tspan x="1260" y="100">USB</tspan>
  </text>
  <line style="fill: none; fill-opacity:0; stroke-width: 2; stroke: #000000" x1="1160" y1="150" x2="1200" y2="150"/>
  <g>
    <rect style="fill: #ffffff" x="1060" y="20" width="100" height="60"/>
    <rect style="fill: none; fill-opacity:0; stroke-width: 2; stroke: #000000" x="1060" y="20" width="100" height="60"/>
  </g>
  <text font-size="12.8" style="fill: #000000;text-anchor:start;font-family:sans-serif;font-style:normal;font-weight:normal" x="1076" y="40">
    <tspan x="1076" y="40"> LDO</tspan>
    <tspan x="1076" y="56">Regulator</tspan>
    <tspan x="1076" y="72"> Vout=5v</tspan>
  </text>
  <line style="fill: none; fill-opacity:0; stroke-width: 2; stroke: #000000" x1="1160" y1="40" x2="1200" y2="40"/>
  <line style="fill: none; fill-opacity:0; stroke-width: 2; stroke: #000000" x1="860" y1="40" x2="880" y2="40"/>
  <g>
    <rect style="fill: #ffffff" x="1280" y="120" width="80" height="60"/>
    <rect style="fill: none; fill-opacity:0; stroke-width: 2; stroke: #000000" x="1280" y="120" width="80" height="60"/>
  </g>
  <text font-size="12.8" style="fill: #000000;text-anchor:start;font-family:sans-serif;font-style:normal;font-weight:normal" x="1300" y="140">
    <tspan x="1300" y="140"> Odroid</tspan>
    <tspan x="1300" y="156">Show 2</tspan>
  </text>
  <line style="fill: none; fill-opacity:0; stroke-width: 2; stroke: #000000" x1="1300" y1="120" x2="1300" y2="80"/>
  <line style="fill: none; fill-opacity:0; stroke-width: 2; stroke: #000000" x1="860" y1="40" x2="1060" y2="40"/>
  <polyline style="fill: none; fill-opacity:0; stroke-width: 2; stroke: #000000" points="550,170 550,100 640,100 "/>
  <polyline style="fill: none; fill-opacity:0; stroke-width: 2; stroke: #000000" points="640,100 640,118 630,120 650,124 630,128 650,132 630,136 650,140 640,142 640,160 "/>
  <g>
    <line style="fill: none; fill-opacity:0; stroke-width: 2; stroke: #000000" x1="640" y1="160" x2="640" y2="170"/>
    <line style="fill: none; fill-opacity:0; stroke-width: 2; stroke: #000000" x1="630" y1="170" x2="650" y2="170"/>
    <line style="fill: none; fill-opacity:0; stroke-width: 2; stroke: #000000" x1="633.35" y1="175" x2="646.65" y2="175"/>
    <line style="fill: none; fill-opacity:0; stroke-width: 2; stroke: #000000" x1="636.7" y1="180" x2="643.3" y2="180"/>
  </g>
  <line style="fill: none; fill-opacity:0; stroke-width: 2; stroke: #000000" x1="450" y1="100" x2="450" y2="100"/>
  <polyline style="fill: none; fill-opacity:0; stroke-width: 2; stroke: #000000" points="450,100 430,100 430,220 "/>
  <g>
    <rect style="fill: #ffffff" x="290" y="20" width="100" height="70"/>
    <rect style="fill: none; fill-opacity:0; stroke-width: 2; stroke: #000000" x="290" y="20" width="100" height="70"/>
  </g>
  <g>
    <polyline style="fill: none; fill-opacity:0; stroke-width: 2; stroke: #000000" points="254.472,40 290,40 "/>
    <polyline style="fill: none; fill-opacity:0; stroke-width: 2; stroke: #000000" points="262.236,35 252.236,40 262.236,45 "/>
  </g>
  <polyline style="fill: none; fill-opacity:0; stroke-width: 2; stroke: #000000" points="430,40 430,58 420,60 440,64 420,68 440,72 420,76 440,80 430,82 430,100 "/>
  <text font-size="12.8" style="fill: #000000;text-anchor:start;font-family:sans-serif;font-style:normal;font-weight:normal" x="306" y="36">
    <tspan x="306" y="36">Voltage</tspan>
    <tspan x="306" y="52">Supervisor</tspan>
    <tspan x="306" y="68">Open-drain</tspan>
    <tspan x="306" y="84">3.0v (or 4.5v)</tspan>
  </text>
  <polyline style="fill: none; fill-opacity:0; stroke-width: 2; stroke: #000000" points="240,10 240,28 230,30 250,34 230,38 250,42 230,46 250,50 240,52 240,70 "/>
  <g>
    <line style="fill: none; fill-opacity:0; stroke-width: 2; stroke: #000000" x1="240" y1="80" x2="240" y2="100"/>
    <line style="fill: none; fill-opacity:0; stroke-width: 2; stroke: #000000" x1="220" y1="100" x2="260" y2="100"/>
    <line style="fill: none; fill-opacity:0; stroke-width: 2; stroke: #000000" x1="226.7" y1="110" x2="253.3" y2="110"/>
    <line style="fill: none; fill-opacity:0; stroke-width: 2; stroke: #000000" x1="233.4" y1="120" x2="246.6" y2="120"/>
  </g>
  <polyline style="fill: none; fill-opacity:0; stroke-width: 2; stroke: #000000" points="240,10 240,0 "/>
  <polyline style="fill: none; fill-opacity:0; stroke-width: 2; stroke: #000000" points="230,60 230,60 "/>
  <polyline style="fill: none; fill-opacity:0; stroke-width: 2; stroke: #000000" points="240,70 240,80 "/>
  <text font-size="12.8" style="fill: #000000;text-anchor:start;font-family:sans-serif;font-style:normal;font-weight:normal" x="370" y="280">
    <tspan x="370" y="280">LiPo</tspan>
    <tspan x="370" y="296">6Ah</tspan>
  </text>
  <text font-size="12.8" style="fill: #000000;text-anchor:start;font-family:sans-serif;font-style:normal;font-weight:normal" x="540" y="240">
    <tspan x="540" y="240">DMP4010SK</tspan>
  </text>
  <text font-size="12.8" style="fill: #000000;text-anchor:start;font-family:sans-serif;font-style:normal;font-weight:normal" x="470" y="120">
    <tspan x="470" y="120">VP2106N3</tspan>
  </text>
  <text font-size="12.8" style="fill: #000000;text-anchor:start;font-family:sans-serif;font-style:normal;font-weight:normal" x="660" y="140">
    <tspan x="660" y="140">470k</tspan>
  </text>
  <polyline style="fill: none; fill-opacity:0; stroke-width: 2; stroke: #000000" points="1320,180 1320,320 610,320 "/>
  <polyline style="fill: none; fill-opacity:0; stroke-width: 2; stroke: #000000" points="610,250 610,268 600,270 620,274 600,278 620,282 600,286 620,290 610,292 610,310 "/>
  <polyline style="fill: none; fill-opacity:0; stroke-width: 2; stroke: #000000" points="610,320 610,338 600,340 620,344 600,348 620,352 600,356 620,360 610,362 610,380 "/>
  <g>
    <line style="fill: none; fill-opacity:0; stroke-width: 2; stroke: #000000" x1="609" y1="380" x2="609" y2="390"/>
    <line style="fill: none; fill-opacity:0; stroke-width: 2; stroke: #000000" x1="600" y1="390" x2="618" y2="390"/>
    <line style="fill: none; fill-opacity:0; stroke-width: 2; stroke: #000000" x1="603.015" y1="395" x2="614.985" y2="395"/>
    <line style="fill: none; fill-opacity:0; stroke-width: 2; stroke: #000000" x1="606.03" y1="400" x2="611.97" y2="400"/>
  </g>
  <polyline style="fill: none; fill-opacity:0; stroke-width: 2; stroke: #000000" points="610,250 430,250 "/>
  <polyline style="fill: none; fill-opacity:0; stroke-width: 2; stroke: #000000" points="610,310 610,320 "/>
  <polyline style="fill: none; fill-opacity:0; stroke-width: 2; stroke: #000000" points="390,40 470,40 470,50 "/>
  <polyline style="fill: none; fill-opacity:0; stroke-width: 2; stroke: #000000" points="600,100 590,100 "/>
  <text font-size="12.8" style="fill: #000000;text-anchor:start;font-family:sans-serif;font-style:normal;font-weight:normal" x="200" y="50">
    <tspan x="200" y="50">10k</tspan>
  </text>
  <polyline style="fill: none; fill-opacity:0; stroke-width: 2; stroke: #000000" points="350,220 340,220 "/>
  <g>
    <ellipse style="fill: #000000" cx="431" cy="220" rx="4" ry="4"/>
    <ellipse style="fill: none; fill-opacity:0; stroke-width: 2; stroke: #000000" cx="431" cy="220" rx="4" ry="4"/>
  </g>
  <polyline style="fill: none; fill-opacity:0; stroke-width: 2; stroke: #000000" points="881,40 880,230 920,230 "/>
  <g>
    <line style="fill: none; fill-opacity:0; stroke-width: 2; stroke: #000000" x1="470" y1="80" x2="530" y2="80"/>
    <line style="fill: none; fill-opacity:0; stroke-width: 2; stroke: #000000" x1="470" y1="70" x2="530" y2="70"/>
    <line style="fill: none; fill-opacity:0; stroke-width: 2; stroke: #000000" x1="470" y1="70" x2="470" y2="50"/>
    <line style="fill: none; fill-opacity:0; stroke-width: 2; stroke: #000000" x1="470" y1="80" x2="470" y2="100"/>
    <line style="fill: none; fill-opacity:0; stroke-width: 2; stroke: #000000" x1="530" y1="80" x2="530" y2="100"/>
    <line style="fill: none; fill-opacity:0; stroke-width: 2; stroke: #000000" x1="470" y1="100" x2="500" y2="100"/>
    <g>
      <line style="fill: none; fill-opacity:0; stroke-width: 2; stroke: #000000" x1="500" y1="89" x2="500" y2="80"/>
      <polygon style="fill: #000000" points="495,89 500,99 505,89 "/>
      <polygon style="fill: none; fill-opacity:0; stroke-width: 2; stroke: #000000" points="495,89 500,99 505,89 "/>
    </g>
    <line style="fill: none; fill-opacity:0; stroke-width: 2; stroke: #000000" x1="470" y1="100" x2="450" y2="100"/>
    <line style="fill: none; fill-opacity:0; stroke-width: 2; stroke: #000000" x1="530" y1="100" x2="560" y2="100"/>
  </g>
  <g>
    <line style="fill: none; fill-opacity:0; stroke-width: 2; stroke: #000000" x1="550" y1="200" x2="610" y2="200"/>
    <line style="fill: none; fill-opacity:0; stroke-width: 2; stroke: #000000" x1="550" y1="190" x2="610" y2="190"/>
    <line style="fill: none; fill-opacity:0; stroke-width: 2; stroke: #000000" x1="550" y1="190" x2="550" y2="170"/>
    <line style="fill: none; fill-opacity:0; stroke-width: 2; stroke: #000000" x1="550" y1="200" x2="550" y2="220"/>
    <line style="fill: none; fill-opacity:0; stroke-width: 2; stroke: #000000" x1="610" y1="200" x2="610" y2="220"/>
    <line style="fill: none; fill-opacity:0; stroke-width: 2; stroke: #000000" x1="550" y1="220" x2="580" y2="220"/>
    <g>
      <line style="fill: none; fill-opacity:0; stroke-width: 2; stroke: #000000" x1="580" y1="209" x2="580" y2="200"/>
      <polygon style="fill: #000000" points="575,209 580,219 585,209 "/>
      <polygon style="fill: none; fill-opacity:0; stroke-width: 2; stroke: #000000" points="575,209 580,219 585,209 "/>
    </g>
    <line style="fill: none; fill-opacity:0; stroke-width: 2; stroke: #000000" x1="550" y1="220" x2="530" y2="220"/>
    <line style="fill: none; fill-opacity:0; stroke-width: 2; stroke: #000000" x1="610" y1="220" x2="640" y2="220"/>
  </g>
  <line style="fill: none; fill-opacity:0; stroke-width: 2; stroke: #000000" x1="1110" y1="200" x2="1110" y2="180"/>
  <text font-size="12.8" style="fill: #000000;text-anchor:start;font-family:sans-serif;font-style:normal;font-weight:normal" x="1280" y="200">
    <tspan x="1280" y="200">ADC3</tspan>
  </text>
  <text font-size="12.8" style="fill: #000000;text-anchor:start;font-family:sans-serif;font-style:normal;font-weight:normal" x="560" y="280">
    <tspan x="560" y="280">12k</tspan>
  </text>
  <text font-size="12.8" style="fill: #000000;text-anchor:start;font-family:sans-serif;font-style:normal;font-weight:normal" x="560" y="360">
    <tspan x="560" y="360">3.9k</tspan>
  </text>
  <text font-size="12.8" style="fill: #000000;text-anchor:start;font-family:sans-serif;font-style:normal;font-weight:normal" x="400" y="100">
    <tspan x="400" y="100">33k</tspan>
  </text>
  <text font-size="12.8" style="fill: #000000;text-anchor:start;font-family:sans-serif;font-style:normal;font-weight:normal" x="800" y="40">
    <tspan x="800" y="40">10SQ050</tspan>
  </text>
  <text font-size="12.8" style="fill: #000000;text-anchor:start;font-family:sans-serif;font-style:normal;font-weight:normal" x="800" y="280">
    <tspan x="800" y="280">10SQ050</tspan>
  </text>
</svg>
